<?xml version="1.0" encoding="iso-8859-1"?>
<!-- Generator: Adobe Illustrator 19.0.0, SVG Export Plug-In . SVG Version: 6.00 Build 0)  -->
<svg version="1.1" id="Capa_1" xmlns="http://www.w3.org/2000/svg" xmlns:xlink="http://www.w3.org/1999/xlink" x="0px" y="0px"
	 viewBox="0 0 512 512" style="enable-background:new 0 0 512 512;" xml:space="preserve">
<g>
	<g>
		<path fill="#FFF" d="M216,246c-5.52,0-10,4.48-10,10s4.48,10,10,10s10-4.48,10-10C226,250.48,221.52,246,216,246z"/>
	</g>
</g>
<g>
	<g>
		<path fill="#FFF" d="M463.809,209.753l-80-100C381.911,107.381,379.038,106,376,106H136c-3.038,0-5.911,1.381-7.809,3.753l-80,100
			c-2.989,3.731-2.861,9.052,0.108,12.626c0.006,0.008,0.011,0.016,0.018,0.023l200,240c0.01,0.012,0.022,0.022,0.032,0.034
			c0.201,0.238,0.414,0.464,0.635,0.681c0.057,0.056,0.114,0.112,0.172,0.167c0.235,0.221,0.477,0.433,0.731,0.629
			c0.025,0.019,0.051,0.036,0.076,0.055c0.235,0.178,0.479,0.344,0.73,0.5c0.068,0.042,0.135,0.084,0.203,0.125
			c0.275,0.164,0.557,0.318,0.847,0.454c0.024,0.011,0.049,0.02,0.073,0.031c0.272,0.126,0.551,0.236,0.835,0.337
			c0.072,0.026,0.143,0.051,0.216,0.075c0.308,0.102,0.621,0.193,0.94,0.265c0.014,0.003,0.028,0.005,0.041,0.008
			c0.303,0.067,0.612,0.116,0.923,0.154c0.081,0.01,0.162,0.019,0.243,0.027C255.34,465.978,255.668,466,256,466
			c0.332,0,0.66-0.022,0.986-0.055c0.081-0.008,0.162-0.017,0.243-0.027c0.311-0.038,0.619-0.087,0.923-0.154
			c0.013-0.003,0.027-0.005,0.041-0.008c0.319-0.072,0.632-0.163,0.94-0.265c0.073-0.024,0.144-0.049,0.216-0.075
			c0.284-0.101,0.563-0.212,0.835-0.337c0.024-0.011,0.049-0.02,0.073-0.031c0.291-0.137,0.572-0.291,0.847-0.454
			c0.069-0.041,0.136-0.083,0.203-0.125c0.25-0.157,0.494-0.322,0.73-0.5c0.025-0.019,0.051-0.036,0.076-0.055
			c0.254-0.196,0.496-0.408,0.731-0.629c0.058-0.055,0.115-0.11,0.172-0.167c0.221-0.218,0.434-0.443,0.635-0.681
			c0.01-0.012,0.022-0.022,0.032-0.034l200-240c0.006-0.008,0.011-0.016,0.018-0.023
			C466.714,218.752,466.752,213.427,463.809,209.753z M290.338,126l48,80H173.662l48-80H290.338z M140.807,126h57.531l-48,80H76.806
			L140.807,126z M77.35,226h71.983l71.983,172.76L77.35,226z M256,430l-85-204h170L256,430z M290.683,398.76L362.667,226h71.983
			L290.683,398.76z M361.662,206l-48-80h57.531l64.001,80H361.662z"/>
	</g>
</g>
<g>
	<g>
		<path fill="#FFF" d="M296,246h-40c-5.522,0-10,4.477-10,10s4.478,10,10,10h40c5.522,0,10-4.477,10-10S301.522,246,296,246z"/>
	</g>
</g>
<g>
	<g>
		<path fill="#FFF" d="M502,40h-30V10c0-5.523-4.478-10-10-10c-5.522,0-10,4.477-10,10v30h-30c-5.522,0-10,4.477-10,10s4.478,10,10,10h30v30
			c0,5.523,4.478,10,10,10c5.522,0,10-4.477,10-10V60h30c5.522,0,10-4.477,10-10S507.522,40,502,40z"/>
	</g>
</g>
<g>
	<g>
		<path fill="#FFF" d="M90,452H60v-30c0-5.523-4.478-10-10-10s-10,4.477-10,10v30H10c-5.522,0-10,4.477-10,10s4.478,10,10,10h30v30
			c0,5.523,4.478,10,10,10s10-4.477,10-10v-30h30c5.522,0,10-4.477,10-10S95.522,452,90,452z"/>
	</g>
</g>
<g>
</g>
<g>
</g>
<g>
</g>
<g>
</g>
<g>
</g>
<g>
</g>
<g>
</g>
<g>
</g>
<g>
</g>
<g>
</g>
<g>
</g>
<g>
</g>
<g>
</g>
<g>
</g>
<g>
</g>
</svg>
