<?xml version="1.0" encoding="iso-8859-1"?>
<!-- Generator: Adobe Illustrator 19.0.0, SVG Export Plug-In . SVG Version: 6.00 Build 0)  -->
<svg version="1.1" id="Capa_1" xmlns="http://www.w3.org/2000/svg" xmlns:xlink="http://www.w3.org/1999/xlink" x="0px" y="0px"
	 viewBox="0 0 512 512" style="enable-background:new 0 0 512 512;" xml:space="preserve">
<g>
	<g>
		<path fill="#FFF" d="M256,196c-33.084,0-60,26.916-60,60c0,32.877,26.622,60,60,60c33.041,0,60-26.825,60-60C316,222.916,289.084,196,256,196z
			 M256,296c-14.388,0-27.522-7.733-34.62-20.006C228.485,263.727,241.618,256,256,256c14.381,0,27.516,7.727,34.62,19.993
			C283.522,288.267,270.389,296,256,296z M256,236c-14.899,0-28.918,5.516-39.675,14.988C218.801,231.291,235.643,216,256,216
			s37.199,15.291,39.675,34.988C284.918,241.516,270.899,236,256,236z"/>
	</g>
</g>
<g>
	<g>
		<path fill="#FFF" d="M256,352c-33.084,0-60,26.916-60,60c0,32.877,26.622,60,60,60c33.041,0,60-26.825,60-60C316,378.916,289.084,352,256,352z
			 M256,452c-14.388,0-27.522-7.733-34.62-20.006C228.485,419.727,241.618,412,256,412c14.381,0,27.516,7.727,34.62,19.993
			C283.522,444.267,270.389,452,256,452z M256,392c-14.899,0-28.918,5.516-39.675,14.988C218.801,387.291,235.643,372,256,372
			s37.199,15.291,39.675,34.988C284.918,397.516,270.899,392,256,392z"/>
	</g>
</g>
<g>
	<g>
		<path fill="#FFF" d="M256,40c-33.084,0-60,26.916-60,60c0,32.877,26.622,60,60,60c33.041,0,60-26.825,60-60C316,66.916,289.084,40,256,40z
			 M256,140c-14.388,0-27.522-7.733-34.62-20.006C228.485,107.727,241.618,100,256,100c14.381,0,27.516,7.727,34.62,19.993
			C283.522,132.267,270.389,140,256,140z M256,80c-14.899,0-28.918,5.516-39.675,14.988C218.801,75.291,235.643,60,256,60
			s37.199,15.291,39.675,34.988C284.918,85.516,270.899,80,256,80z"/>
	</g>
</g>
<g>
	<g>
		<path fill="#FFF" d="M436,206c0-5.522-4.478-10-10-10h-50v-76.713c33.609-4.78,60-33.674,60-69.287c0-5.522-4.478-10-10-10h-50V30
			c0-16.542-13.458-30-30-30H166c-16.542,0-30,13.458-30,30v10H86c-5.522,0-10,4.478-10,10c0,35.202,26.124,64.406,60,69.274V196H86
			c-5.522,0-10,4.478-10,10c0,35.202,26.124,64.406,60,69.274V352H86c-5.522,0-10,4.478-10,10c0,35.202,26.124,64.406,60,69.274V482
			c0,16.542,13.458,30,30,30h180c16.542,0,30-13.458,30-30v-50.713c33.609-4.78,60-33.674,60-69.287c0-5.522-4.478-10-10-10h-50
			v-76.713C409.609,270.507,436,241.613,436,206z M376,59.9h39.006C411.013,79.67,395.539,95.059,376,99.006V59.9z M376,215.9
			h39.006c-3.993,19.77-19.467,35.159-39.006,39.106V215.9z M136,410.995c-19.562-3.987-35.008-19.433-38.995-38.995H136V410.995z
			 M136,254.995c-19.562-3.987-35.008-19.433-38.995-38.995H136V254.995z M136,98.995C116.438,95.008,100.992,79.562,97.005,60H136
			V98.995z M356,482c0,5.514-4.486,10-10,10H166c-5.514,0-10-4.486-10-10c0-64.549,0-386.13,0-452c0-5.514,4.486-10,10-10h180
			c5.514,0,10,4.486,10,10C356,125.211,356,387.848,356,482z M415.006,371.9c-3.993,19.77-19.467,35.159-39.006,39.106V371.9
			H415.006z"/>
	</g>
</g>
<g>
</g>
<g>
</g>
<g>
</g>
<g>
</g>
<g>
</g>
<g>
</g>
<g>
</g>
<g>
</g>
<g>
</g>
<g>
</g>
<g>
</g>
<g>
</g>
<g>
</g>
<g>
</g>
<g>
</g>
</svg>
